<?xml version="1.0" standalone="no"?>
<!DOCTYPE svg PUBLIC "-//W3C//DTD SVG 20010904//EN"
 "http://www.w3.org/TR/2001/REC-SVG-20010904/DTD/svg10.dtd">
<svg version="1.0" xmlns="http://www.w3.org/2000/svg"
 width="750.000000pt" height="750.000000pt" viewBox="0 0 750.000000 750.000000"
 preserveAspectRatio="xMidYMid meet">
<metadata>
Created by potrace 1.11, written by Peter Selinger 2001-2013
</metadata>
<g transform="translate(0.000000,750.000000) scale(0.100000,-0.100000)"
fill="#000000" stroke="none">
<path d="M3383 6686 c-346 -66 -629 -283 -778 -599 -66 -139 -91 -215 -255
-767 -129 -436 -116 -404 -201 -490 -180 -182 -262 -355 -414 -870 -37 -124
-86 -288 -110 -365 -24 -77 -102 -331 -174 -565 -71 -234 -195 -639 -275 -900
-80 -261 -146 -481 -146 -488 0 -16 2 -16 110 19 203 65 544 169 547 166 1 -2
-58 -223 -131 -493 -74 -269 -138 -502 -142 -519 l-7 -30 24 21 c51 44 1501
994 1518 994 5 0 73 -69 151 -152 l144 -153 -167 -12 c-178 -13 -214 -24 -243
-69 -20 -29 -22 -97 -4 -119 11 -13 91 -15 636 -15 l624 0 12 24 c20 44 -37
202 -81 226 -28 14 -156 12 -376 -6 l-190 -15 -163 168 c-89 92 -171 180 -182
194 l-19 26 132 88 c783 519 1123 858 1286 1280 69 177 84 265 85 470 1 187
-7 253 -49 400 -44 155 -103 273 -229 460 -78 115 -172 302 -191 380 -30 118
-16 255 36 362 33 67 151 182 221 216 156 75 272 85 1008 92 701 6 952 12 988
26 35 14 102 68 102 84 0 7 -10 15 -22 18 -13 3 -300 51 -638 107 -583 95
-955 162 -991 178 -9 4 -51 52 -92 108 -203 271 -448 423 -812 506 -117 26
-433 34 -542 14z"/>
</g>
</svg>
