<?xml version="1.0" standalone="no"?>
<!DOCTYPE svg PUBLIC "-//W3C//DTD SVG 20010904//EN"
 "http://www.w3.org/TR/2001/REC-SVG-20010904/DTD/svg10.dtd">
<svg version="1.0" xmlns="http://www.w3.org/2000/svg"
 width="500.000000pt" height="500.000000pt" viewBox="0 0 500.000000 500.000000"
 preserveAspectRatio="xMidYMid meet">
<metadata>
Created by potrace 1.11, written by Peter Selinger 2001-2013
</metadata>
<g transform="translate(0.000000,500.000000) scale(0.100000,-0.100000)"
fill="#000000" stroke="none">
<path d="M2383 4969 c-20 -11 -33 -14 -33 -8 0 7 -6 6 -17 -2 -11 -10 -14 -10
-9 -1 4 6 2 12 -3 12 -6 0 -11 -5 -11 -12 0 -6 -3 -8 -7 -5 -3 4 -11 3 -17 -3
-7 -5 -34 -12 -61 -16 -28 -3 -57 -10 -66 -15 -9 -4 -19 -5 -23 -2 -3 3 -6 1
-6 -6 0 -8 -6 -11 -16 -7 -10 4 -13 2 -8 -6 5 -7 -1 -9 -20 -6 -14 3 -26 1
-26 -4 0 -5 -4 -7 -9 -4 -5 3 -14 -1 -21 -9 -7 -8 -17 -12 -23 -8 -6 4 -8 0
-4 -9 4 -12 1 -14 -14 -11 -10 3 -19 1 -19 -4 0 -6 -12 -8 -27 -5 -16 2 -25 1
-21 -2 9 -10 -23 -46 -34 -40 -5 3 -19 -2 -30 -13 -12 -10 -18 -12 -13 -4 5 9
-2 7 -17 -5 -14 -10 -23 -25 -21 -31 3 -8 -3 -13 -15 -13 -25 0 -74 -20 -84
-34 -4 -6 -4 -15 0 -21 3 -5 -1 -4 -10 3 -13 10 -16 9 -21 -9 -3 -12 -10 -18
-17 -14 -6 3 -9 2 -8 -3 2 -6 0 -10 -5 -11 -4 0 -18 -11 -30 -24 -38 -39 -79
-67 -90 -60 -6 4 -7 1 -2 -6 4 -8 -1 -19 -15 -28 -12 -8 -19 -21 -16 -30 3 -8
1 -11 -4 -8 -5 3 -18 1 -27 -4 -10 -6 -14 -11 -10 -11 4 0 -3 -12 -17 -27 -14
-15 -23 -30 -20 -35 3 -5 2 -7 -3 -6 -10 4 -47 -34 -51 -53 -2 -8 -10 -19 -17
-25 -8 -6 -11 -15 -7 -19 4 -5 2 -5 -4 -2 -13 8 -40 -30 -39 -53 0 -8 -8 -21
-18 -29 -10 -7 -16 -20 -13 -28 3 -8 1 -11 -4 -8 -7 4 -9 -3 -6 -18 3 -17 -1
-27 -10 -31 -9 -3 -12 -10 -9 -16 3 -5 1 -10 -6 -10 -7 0 -9 -3 -6 -7 4 -3 2
-12 -4 -20 -8 -9 -8 -13 0 -13 6 0 1 -11 -11 -25 -11 -13 -26 -21 -32 -18 -6
3 -8 3 -4 -2 8 -9 -5 -23 -54 -56 -21 -14 -35 -29 -31 -32 3 -4 -2 -7 -12 -7
-10 0 -26 -10 -36 -22 -11 -11 -19 -18 -19 -14 0 4 -6 1 -14 -6 -8 -7 -12 -16
-9 -20 2 -4 -2 -6 -9 -3 -7 3 -26 -6 -42 -20 -16 -13 -33 -22 -39 -18 -5 3 -7
2 -4 -3 3 -6 -15 -23 -41 -39 -26 -16 -49 -32 -52 -35 -3 -4 -19 -15 -37 -25
-18 -10 -29 -23 -26 -28 3 -6 1 -7 -4 -4 -6 4 -22 -4 -37 -18 -14 -13 -26 -22
-26 -19 0 3 -14 -6 -31 -20 -17 -14 -34 -26 -37 -26 -4 0 -22 -14 -39 -31 -18
-16 -33 -28 -33 -25 0 4 -35 -23 -71 -56 -10 -10 -19 -16 -19 -13 0 3 -8 -3
-18 -12 -10 -10 -33 -29 -51 -43 -18 -14 -44 -35 -57 -47 -12 -13 -28 -23 -34
-23 -5 0 -10 -5 -10 -11 0 -5 -4 -7 -10 -4 -6 3 -7 -1 -4 -10 4 -10 2 -15 -7
-13 -8 2 -13 -3 -11 -10 1 -8 -2 -11 -8 -7 -5 3 -10 1 -10 -5 0 -6 -4 -9 -9
-6 -5 3 -12 -1 -15 -10 -3 -8 -10 -12 -16 -9 -5 3 -10 -1 -10 -9 0 -9 -4 -16
-9 -16 -16 0 -102 -90 -96 -100 3 -6 2 -10 -4 -10 -6 0 -8 -7 -4 -16 5 -13 7
-13 14 -2 5 7 9 8 9 2 0 -14 40 -11 49 5 5 7 23 15 42 18 19 2 39 9 45 14 6 5
14 6 17 2 4 -3 7 -2 7 4 0 5 7 10 15 11 8 1 22 3 30 4 8 1 15 5 15 10 0 5 4 7
9 3 5 -3 12 -1 16 5 4 6 11 8 16 5 5 -4 9 -1 9 6 0 7 3 10 6 6 4 -3 19 0 35 9
16 8 31 15 34 15 25 4 44 13 40 19 -3 5 6 7 20 5 14 -1 25 2 25 7 0 6 7 7 16
4 8 -3 12 -2 9 4 -3 6 -1 11 4 11 12 2 26 5 39 9 4 1 10 2 15 1 4 0 7 3 7 9 0
5 7 10 15 10 8 0 15 5 15 11 0 5 5 7 10 4 6 -4 17 -1 25 5 8 6 20 8 26 4 8 -4
9 -3 5 4 -6 11 6 16 27 13 4 0 7 4 7 10 0 5 5 7 10 4 6 -3 10 -1 10 5 0 7 6
10 14 7 8 -3 16 -1 18 5 4 11 25 18 60 21 9 1 15 4 12 8 -3 6 17 19 36 23 3 1
15 7 26 14 12 6 24 8 28 5 3 -3 6 -1 6 6 0 7 5 9 10 6 6 -3 10 -1 10 5 0 6 5
8 10 5 6 -3 10 -1 10 5 0 6 5 8 10 5 6 -3 10 -1 10 6 0 7 3 9 7 6 3 -4 17 0
30 8 13 9 27 13 32 10 5 -2 12 2 15 10 3 8 9 14 13 13 11 -2 66 24 74 36 4 5
11 6 17 2 5 -3 12 1 16 9 3 9 18 15 36 15 16 0 30 4 30 8 0 7 16 11 58 14 6 1
12 5 12 9 0 4 9 6 20 4 11 -2 20 1 20 6 0 6 8 6 20 -1 11 -6 20 -7 20 -3 0 4
24 7 52 5 78 -3 82 -4 97 -16 7 -6 19 -11 25 -11 30 -2 65 -18 59 -28 -3 -5
-2 -7 4 -4 12 7 66 -27 56 -36 -3 -4 -2 -7 4 -7 11 0 23 -29 29 -68 1 -12 0
-20 -4 -18 -4 3 -8 -3 -8 -12 -1 -9 -4 -35 -8 -57 -11 -58 -13 -125 -4 -125 4
0 4 -10 -1 -22 -4 -13 -5 -34 -1 -48 4 -14 2 -31 -3 -37 -6 -9 -6 -13 1 -13 6
0 9 -13 7 -30 -2 -16 0 -32 4 -35 5 -2 7 -18 5 -35 -2 -20 1 -33 10 -36 8 -3
12 -14 9 -24 -3 -11 -2 -28 2 -37 4 -10 9 -28 11 -41 1 -13 8 -29 14 -37 8
-10 7 -14 -2 -18 -9 -4 -8 -6 3 -6 11 -1 15 -11 14 -41 -1 -22 2 -40 6 -40 7
0 22 -39 20 -52 -1 -5 4 -8 10 -8 5 0 7 -4 4 -10 -3 -5 -1 -10 5 -10 6 0 8 -4
5 -10 -3 -5 -1 -10 6 -10 7 0 10 -3 6 -6 -3 -4 1 -24 10 -46 8 -21 13 -42 10
-45 -4 -3 2 -18 12 -32 10 -14 24 -50 32 -78 7 -29 16 -53 20 -53 4 0 6 -13 5
-29 -1 -17 1 -28 5 -25 4 2 11 -10 14 -28 4 -18 15 -39 24 -46 12 -10 12 -11
1 -6 -12 7 -13 5 -3 -8 7 -8 9 -19 5 -23 -4 -5 -1 -5 6 -1 7 5 12 1 12 -10 0
-9 10 -25 22 -35 25 -22 32 -24 22 -6 -6 9 -5 9 8 0 8 -7 19 -9 23 -5 5 4 5 1
1 -5 -4 -7 -2 -13 3 -13 6 0 19 -18 28 -40 10 -22 21 -40 25 -40 5 0 8 -7 8
-16 0 -8 4 -12 10 -9 5 3 7 0 4 -8 -3 -8 5 -24 17 -36 13 -12 19 -21 15 -21
-4 0 0 -7 9 -16 8 -9 22 -13 30 -10 8 3 15 1 15 -5 0 -14 26 -39 39 -39 6 0
11 -4 11 -10 0 -5 5 -10 11 -10 14 0 39 -26 39 -40 0 -6 4 -9 8 -6 5 3 19 -13
33 -34 13 -22 29 -40 35 -40 7 0 15 -7 18 -16 3 -9 11 -12 18 -8 10 6 10 5 0
-8 -10 -13 -9 -15 13 -13 16 2 26 -3 30 -14 10 -32 59 -77 82 -75 14 1 20 -3
16 -12 -3 -9 2 -14 12 -14 9 0 14 -4 11 -8 -3 -5 4 -14 14 -22 10 -8 16 -18
13 -24 -3 -6 -3 -8 2 -4 4 4 19 -1 33 -12 13 -11 28 -17 33 -14 5 3 9 0 9 -5
0 -14 32 -51 43 -51 14 0 36 -27 29 -35 -4 -5 1 -5 11 -2 16 6 22 -3 18 -26
-1 -5 3 -6 9 -2 5 3 10 1 10 -4 0 -6 8 -11 19 -11 10 0 29 -14 42 -32 13 -17
34 -41 45 -54 12 -12 19 -25 16 -28 -3 -3 6 -6 19 -6 14 0 34 -7 45 -15 12 -8
24 -12 28 -10 3 3 4 2 1 -2 -3 -3 0 -12 6 -20 17 -20 0 -16 -19 5 -10 9 -14
13 -9 8 12 -17 8 -26 -10 -19 -10 4 -14 2 -10 -4 4 -6 0 -14 -9 -17 -10 -4
-13 -2 -8 7 8 13 -43 -28 -63 -52 -7 -8 -13 -11 -13 -7 0 5 -8 2 -17 -5 -14
-12 -16 -12 -9 1 4 8 0 6 -8 -4 -9 -11 -16 -15 -16 -9 0 6 -9 9 -20 6 -11 -3
-20 -1 -20 5 0 5 -7 13 -16 16 -8 3 -12 2 -9 -4 3 -6 -1 -7 -9 -4 -9 3 -16 12
-16 19 0 8 -11 11 -30 9 -16 -2 -30 1 -30 6 0 6 -13 10 -30 10 -16 0 -30 5
-30 12 0 6 -3 9 -6 6 -3 -4 -19 -2 -35 2 -21 6 -33 5 -43 -5 -7 -8 -17 -11
-20 -8 -4 4 -16 8 -28 10 -12 2 -29 10 -38 18 -9 8 -20 12 -24 8 -4 -4 -16 3
-28 17 -11 14 -17 19 -13 12 6 -11 3 -11 -13 -1 -12 7 -18 17 -15 23 3 5 1 6
-5 3 -5 -4 -17 -4 -26 -1 -13 5 -14 10 -5 20 8 10 7 12 -9 9 -15 -3 -18 1 -15
23 l4 27 -16 -25 c-9 -14 -14 -17 -11 -8 3 10 2 18 -2 19 -9 1 -52 8 -77 13
-11 2 -24 4 -28 5 -5 0 -5 6 -1 12 4 8 0 8 -15 0 -18 -10 -21 -9 -21 6 0 15
-2 15 -15 -3 -11 -13 -14 -14 -13 -4 2 10 -5 15 -19 14 -13 0 -23 3 -23 8 0 4
-5 8 -11 8 -5 0 -7 -6 -3 -12 6 -10 5 -10 -8 -1 -8 7 -18 10 -22 5 -4 -4 -12
1 -17 11 -6 9 -17 17 -24 17 -8 0 -15 4 -15 9 0 5 -7 12 -16 15 -10 4 -13 2
-8 -7 4 -6 -1 -5 -12 3 -10 9 -32 17 -49 19 -16 2 -35 7 -42 12 -7 7 -14 6
-18 -1 -5 -8 -11 -8 -20 0 -10 8 -19 8 -34 0 -12 -6 -21 -9 -21 -6 0 3 -13 1
-30 -4 -16 -5 -30 -5 -30 -1 0 4 -17 7 -37 6 -21 0 -43 3 -50 8 -7 5 -20 4
-32 -3 -16 -8 -21 -8 -21 2 0 9 -3 9 -10 -2 -9 -13 -10 -13 -10 0 0 9 -3 11
-8 5 -4 -5 -23 -10 -42 -11 -54 -2 -90 -14 -91 -33 -3 -40 4 -86 12 -89 5 -2
9 -8 9 -13 0 -6 -4 -8 -9 -5 -5 4 -8 -2 -6 -11 2 -10 4 -18 6 -18 1 0 3 -28 4
-63 2 -34 9 -70 16 -79 12 -14 12 -16 0 -8 -11 6 -13 4 -8 -8 3 -10 2 -17 -4
-17 -6 0 -7 -6 -2 -12 4 -7 6 -21 4 -32 -2 -13 1 -16 11 -10 10 6 10 4 -1 -9
-10 -13 -10 -17 -1 -17 9 0 9 -4 -1 -17 -11 -13 -11 -15 -1 -9 11 6 12 1 9
-24 -4 -21 -1 -33 8 -36 7 -3 16 -12 19 -20 4 -10 2 -13 -7 -8 -6 4 -3 -3 8
-16 12 -14 14 -20 5 -15 -13 7 -13 6 -2 -7 7 -9 11 -28 8 -42 -3 -15 1 -32 10
-41 12 -12 12 -15 2 -15 -9 0 -9 -3 -2 -8 6 -4 10 -15 8 -24 -1 -10 4 -18 12
-18 8 0 14 -4 14 -9 0 -5 7 -12 16 -15 10 -4 13 -2 8 7 -6 8 -3 8 9 -1 9 -8
22 -10 28 -6 7 4 10 3 7 -2 -3 -5 0 -14 7 -21 11 -10 15 -10 18 0 3 7 6 3 6
-8 1 -11 10 -27 21 -35 11 -8 20 -20 20 -28 0 -7 4 -11 8 -8 14 8 14 -65 0
-82 -8 -10 -9 -13 -1 -9 8 5 11 -3 9 -25 -2 -20 4 -39 14 -48 9 -9 10 -11 1
-5 -12 9 -12 7 -1 -15 7 -14 21 -31 32 -38 10 -7 18 -23 18 -36 0 -24 3 -25
62 -29 30 -2 34 -4 25 -16 -9 -12 -9 -13 1 -7 7 4 19 2 27 -4 8 -7 15 -9 15
-5 0 4 6 3 13 -2 6 -6 21 -13 31 -17 17 -6 17 -4 5 11 -11 15 -10 15 9 -1 12
-11 22 -15 22 -10 0 5 5 2 10 -6 5 -8 10 -10 10 -5 0 9 20 13 75 15 10 1 25 6
32 12 10 8 13 7 13 -2 0 -7 9 -3 20 10 11 13 20 19 20 15 0 -5 6 0 14 10 8 11
12 23 10 27 -3 4 3 5 13 1 10 -3 15 -2 11 2 -5 5 1 15 12 22 11 8 17 19 14 25
-4 6 -2 8 4 4 6 -3 13 -2 16 3 4 5 2 12 -4 16 -6 4 -5 13 2 25 7 10 15 17 18
15 4 -2 6 6 5 18 -1 12 2 30 7 39 5 12 5 18 -2 18 -5 0 -10 5 -10 11 0 5 6 7
13 3 6 -4 3 2 -7 14 -12 14 -14 22 -7 22 7 0 9 5 5 12 -4 7 -3 8 5 4 6 -4 8
-12 5 -18 -4 -6 2 -6 15 1 14 8 21 8 21 1 0 -5 9 -10 19 -10 11 0 21 -4 23 -9
2 -6 19 -13 38 -16 19 -3 40 -11 47 -16 7 -6 17 -8 23 -4 5 3 10 3 10 -2 0 -9
48 -33 67 -33 8 0 16 -6 19 -14 3 -7 15 -13 27 -12 12 1 32 -4 45 -12 12 -8
22 -11 22 -7 0 4 6 2 13 -4 8 -6 17 -8 20 -5 3 4 14 3 24 -1 10 -5 36 -9 58
-11 56 -4 84 -11 103 -26 13 -11 14 -11 7 2 -8 13 -7 13 10 0 10 -8 20 -14 22
-12 3 2 6 2 28 -2 71 -12 94 -19 88 -28 -4 -7 2 -9 16 -5 12 3 27 -1 35 -9 11
-11 16 -11 19 -1 3 6 6 3 6 -8 1 -17 3 -17 11 -5 6 10 10 11 10 3 0 -7 5 -13
11 -13 5 0 7 6 3 13 -4 6 2 3 14 -7 12 -11 22 -15 22 -10 0 5 5 2 10 -6 9 -13
10 -13 10 0 0 13 1 13 10 0 8 -12 10 -12 10 -1 0 11 5 9 22 -5 12 -10 18 -13
14 -6 -8 13 6 17 18 5 3 -4 14 -8 24 -9 30 -5 47 -9 61 -19 10 -5 16 -4 19 4
3 8 8 7 17 -5 7 -10 25 -19 41 -21 16 -3 31 -7 34 -11 6 -8 28 -15 52 -16 9 0
14 -4 12 -8 -3 -4 1 -8 9 -8 7 0 23 -9 35 -20 12 -11 24 -20 26 -20 7 0 40
-27 74 -60 14 -14 26 -24 27 -23 1 6 45 -11 45 -17 0 -5 11 -7 25 -6 13 2 22
-1 19 -5 -3 -5 0 -9 5 -9 21 0 26 -2 39 -12 8 -7 12 -7 12 2 0 9 3 10 14 1 7
-6 25 -12 40 -13 14 -1 26 -5 26 -9 0 -4 7 -10 16 -13 9 -4 13 -2 8 5 -8 13
38 1 46 -11 3 -5 16 -10 30 -11 14 -2 28 -8 32 -14 5 -6 174 -11 463 -13 l455
-3 -2 216 c-2 118 -6 214 -9 213 -3 -2 -13 3 -22 11 -14 11 -17 11 -17 0 0
-11 -2 -11 -9 -1 -4 7 -17 14 -29 15 -11 0 -18 5 -16 9 5 7 -18 12 -38 9 -5 0
-8 4 -8 10 0 5 -4 7 -10 4 -5 -3 -10 -2 -10 3 0 6 -9 8 -20 5 -12 -3 -20 0
-20 8 0 7 -3 9 -7 6 -3 -4 -13 -1 -21 6 -13 10 -15 9 -8 -3 4 -9 2 -8 -7 2 -8
10 -17 15 -20 11 -4 -3 -7 -1 -7 5 0 8 -11 10 -31 7 -21 -4 -28 -2 -24 6 6 8
2 8 -14 0 -16 -9 -21 -9 -21 1 0 10 -2 10 -9 0 -4 -8 -14 -13 -22 -12 -31 5
-50 0 -43 -12 4 -6 3 -8 -4 -5 -5 4 -9 15 -7 25 1 9 -3 23 -9 31 -8 11 -8 13
1 7 10 -5 12 4 8 38 -2 26 0 46 5 46 5 0 7 7 4 15 -4 8 -1 15 5 15 8 0 9 5 1
19 -6 12 -6 22 -1 25 5 3 7 16 3 28 -3 14 -2 19 6 14 7 -4 12 -3 12 3 0 5 -6
12 -12 14 -10 4 -10 6 0 6 7 1 10 6 7 11 -3 6 -3 15 1 21 4 7 9 30 11 52 4 46
10 60 25 51 7 -4 8 -2 4 5 -4 6 -2 18 4 26 10 12 10 15 -1 15 -12 0 -12 2 0 9
8 5 16 26 18 48 2 21 4 46 5 56 2 13 9 17 24 14 34 -6 45 6 46 51 0 25 4 39
10 35 7 -4 7 0 1 12 -12 20 -6 55 9 55 5 0 6 5 2 12 -4 7 -3 8 5 4 9 -6 9 -11
0 -22 -6 -8 -9 -17 -6 -20 8 -9 47 6 47 18 0 6 -7 5 -17 -3 -15 -11 -16 -11
-6 1 15 16 57 25 48 10 -3 -5 3 -10 14 -10 12 0 21 -6 21 -12 0 -9 4 -8 10 2
8 12 10 12 10 1 0 -10 3 -11 14 -2 15 13 29 64 14 55 -4 -3 -11 3 -15 13 -4
10 -11 21 -17 25 -7 5 -6 8 4 8 9 0 6 6 -9 16 -16 12 -22 23 -18 40 2 14 1 26
-2 28 -3 3 -6 41 -6 85 0 45 -4 81 -9 81 -4 0 -3 6 3 14 8 10 9 16 2 21 -6 3
-11 16 -11 28 0 29 -7 102 -9 102 -2 0 -4 15 -6 34 -2 19 -6 44 -9 55 -3 12
-5 25 -5 30 1 5 -5 13 -13 17 -11 7 -11 9 1 9 11 0 10 4 -2 23 -9 15 -12 29
-7 37 5 8 5 19 0 25 -5 7 -11 22 -14 36 -2 13 -10 23 -17 21 -10 -2 -10 0 0
12 8 9 8 16 2 20 -6 4 -7 14 -4 23 4 11 3 14 -5 9 -8 -5 -12 1 -12 18 0 14 -5
26 -12 26 -6 0 -8 3 -5 7 4 3 1 13 -6 21 -10 13 -9 14 3 7 9 -5 7 1 -5 15 -13
15 -15 21 -5 16 9 -5 8 -2 -2 7 -10 8 -15 17 -11 20 3 4 1 7 -5 7 -7 0 -12 14
-12 30 0 17 -5 30 -11 30 -5 0 -8 4 -4 9 3 5 -2 17 -11 25 -8 9 -12 16 -8 16
5 0 3 5 -3 11 -6 6 -9 18 -6 27 4 9 2 13 -3 9 -6 -3 -21 18 -34 48 -13 30 -28
51 -33 48 -6 -4 -7 -1 -2 7 5 8 2 17 -7 24 -8 6 -16 16 -17 21 -6 25 -34 75
-43 75 -5 0 -6 5 -3 10 3 6 1 10 -5 10 -6 0 -15 11 -22 25 -6 13 -15 22 -19
19 -5 -3 -6 1 -4 9 3 7 -6 27 -20 43 -41 47 -44 52 -38 58 4 3 0 6 -7 6 -7 0
-11 3 -8 6 3 3 -5 17 -19 32 -13 15 -31 34 -39 43 -8 9 -14 21 -14 27 0 7 -4
12 -10 12 -5 0 -10 7 -10 15 0 8 -4 15 -10 15 -5 0 -10 7 -10 15 0 8 -5 15
-12 15 -6 0 -9 3 -5 6 3 3 -2 14 -11 23 -25 27 -52 61 -52 66 0 2 -10 14 -22
27 -13 13 -32 36 -43 52 -11 15 -25 34 -32 41 -7 7 -9 15 -6 19 4 3 -1 6 -11
6 -9 0 -15 4 -12 8 3 5 -4 14 -14 22 -10 8 -17 17 -14 22 3 4 0 8 -6 8 -6 0
-8 5 -4 12 4 7 3 8 -4 4 -6 -4 -16 4 -23 16 -7 13 -20 30 -30 39 -10 9 -16 19
-12 23 3 3 -1 6 -11 6 -9 0 -14 5 -11 10 3 6 1 10 -5 10 -6 0 -9 4 -6 8 3 5
-4 15 -15 22 -10 8 -19 17 -19 21 0 12 -63 74 -72 71 -5 -1 -6 2 -3 8 4 6 -13
31 -38 55 -25 24 -42 47 -39 51 4 4 -1 4 -10 1 -10 -3 -17 -3 -15 2 1 5 -24
34 -55 65 -32 31 -58 53 -58 50 0 -4 -11 5 -25 20 -13 14 -29 26 -35 26 -5 0
-10 5 -10 10 0 6 -7 10 -15 10 -8 0 -15 5 -15 10 0 6 -7 10 -15 10 -8 0 -15 5
-15 11 0 5 -4 8 -9 4 -6 -3 -13 1 -18 9 -4 8 -10 15 -13 15 -3 0 -18 4 -33 10
-19 7 -26 15 -21 23 6 9 3 9 -9 0 -14 -12 -16 -11 -12 7 3 14 -1 18 -11 14
-10 -4 -12 0 -8 11 3 9 11 13 16 10 6 -4 4 4 -3 17 -7 13 -13 26 -13 29 -1 3
-3 4 -6 3 -3 -1 -6 10 -6 23 -2 22 -1 23 10 8 9 -12 15 -14 20 -6 4 7 2 12 -4
12 -7 0 -10 7 -6 15 3 8 1 15 -4 15 -5 0 -6 7 -3 17 4 11 3 14 -5 9 -8 -5 -10
-2 -6 9 4 8 1 22 -6 30 -11 13 -10 14 4 9 9 -3 16 -11 16 -17 0 -6 3 -7 7 -4
3 4 -2 17 -13 29 -10 12 -14 18 -7 15 22 -13 23 12 2 27 -19 13 -20 18 -9 31
9 11 9 15 1 15 -7 0 -9 5 -6 10 3 6 0 10 -7 10 -9 0 -9 3 2 10 13 8 13 10 -1
10 -10 0 -15 8 -15 23 1 14 -4 21 -13 19 -12 -3 -12 -1 -1 15 8 10 11 15 6 11
-10 -8 -57 32 -50 44 3 4 -2 8 -11 8 -9 0 -14 4 -10 9 3 6 -4 15 -15 21 -11 6
-18 15 -15 19 3 5 -2 12 -11 15 -10 4 -13 2 -8 -7 4 -6 -2 -3 -13 8 -14 13
-16 22 -9 27 7 5 6 8 -3 8 -8 0 -11 3 -8 7 4 3 2 12 -4 20 -9 10 -8 13 0 13 7
0 10 4 7 9 -4 5 0 12 6 14 10 4 10 6 1 6 -7 1 -13 8 -13 16 0 8 -6 15 -12 15
-9 0 -8 4 2 10 9 6 11 10 3 10 -17 0 -82 67 -74 77 3 4 -2 1 -11 -6 -15 -12
-18 -11 -18 3 0 9 -4 16 -10 16 -5 0 -14 10 -21 21 -9 17 -8 20 3 14 7 -3 5 0
-4 8 -10 8 -18 20 -18 27 0 7 -3 11 -6 7 -8 -8 -33 16 -27 26 2 4 -1 7 -7 7
-16 0 -40 26 -32 35 4 4 3 6 -3 5 -26 -6 -37 1 -31 17 4 10 4 14 0 11 -4 -4
-16 -3 -27 3 -15 9 -18 8 -11 -3 4 -7 -2 -5 -13 5 -11 9 -23 14 -26 10 -4 -3
-7 -2 -7 3 0 5 -8 11 -17 12 -18 2 -54 9 -63 12 -3 1 -13 1 -24 0 -10 -1 -15
3 -12 8 3 6 -2 9 -11 8 -10 -2 -21 2 -25 8 -5 7 -8 6 -8 -4 0 -10 -3 -11 -8
-4 -4 7 -23 13 -42 15 -19 2 -38 8 -42 14 -5 7 -8 6 -8 -1 0 -11 -39 -11 -57
-1 -4 2 -23 -4 -40 -14z m911 -778 c4 -5 -3 -7 -14 -4 -23 6 -26 13 -6 13 8 0
17 -4 20 -9z m-118 -2916 c-3 -8 -1 -15 5 -15 6 0 7 -5 3 -12 -5 -7 -11 -5
-21 7 -7 11 -13 13 -13 7 0 -19 4 -27 13 -24 4 1 7 -2 7 -7 0 -5 -13 -8 -29
-7 -28 1 -29 2 -13 19 15 17 15 17 -1 11 -9 -3 -17 -2 -17 3 0 5 7 10 15 11 8
1 22 3 30 4 8 1 15 5 15 10 0 4 3 8 6 8 3 0 4 -7 0 -15z m130 -102 c-5 -34
-56 -40 -56 -7 0 10 6 11 28 4 25 -9 25 -9 8 4 -18 14 -18 15 2 13 11 0 19 -7
18 -14z m14 -27 c0 -2 -8 -10 -17 -17 -16 -13 -17 -12 -4 4 13 16 21 21 21 13z
m40 -6 c8 -5 11 -10 5 -10 -5 0 -17 5 -25 10 -8 5 -10 10 -5 10 6 0 17 -5 25
-10z m1320 -4 c0 -2 -7 -7 -16 -10 -8 -3 -12 -2 -9 4 6 10 25 14 25 6z m-1250
-30 c0 -3 -4 -8 -10 -11 -5 -3 -10 -1 -10 4 0 6 5 11 10 11 6 0 10 -2 10 -4z
m2 -18 c9 2 20 -2 24 -9 4 -7 3 -9 -4 -5 -6 3 -14 2 -17 -4 -4 -6 -3 -10 2 -9
21 4 31 -3 36 -22 4 -14 10 -18 19 -13 10 6 11 5 1 -8 -7 -8 -11 -18 -8 -22 3
-3 -1 -2 -7 4 -7 5 -22 10 -34 10 -14 0 -25 8 -29 20 -4 12 -11 17 -18 13 -7
-4 -5 2 3 12 8 10 10 16 3 12 -8 -5 -11 -1 -10 12 0 11 6 17 12 13 5 -4 17 -5
27 -4z m346 -103 c-3 -3 -9 2 -12 12 -6 14 -5 15 5 6 7 -7 10 -15 7 -18z m36
0 c-10 -8 -14 -15 -7 -15 6 0 15 5 18 10 4 6 11 7 17 4 6 -4 8 -2 4 4 -3 6 -2
13 4 17 5 3 10 1 10 -6 0 -8 5 -7 17 2 13 11 15 11 9 1 -5 -9 -3 -13 5 -11 27
3 40 -1 34 -11 -3 -6 1 -7 9 -4 11 4 16 0 16 -10 0 -9 5 -16 11 -16 7 0 9 -9
6 -21 -4 -16 -3 -18 8 -9 11 9 12 7 8 -9 -5 -20 28 -47 41 -33 4 3 4 -1 1 -10
-4 -9 0 -18 10 -22 10 -3 15 -12 11 -21 -3 -8 -1 -15 5 -15 6 0 7 -4 4 -10 -3
-5 0 -10 7 -10 10 0 9 -3 -1 -9 -9 -6 -22 -6 -34 1 -15 8 -18 7 -11 -4 5 -8
-3 -6 -20 6 -17 11 -25 13 -20 5 6 -11 5 -12 -8 -2 -8 7 -18 10 -21 6 -4 -3
-7 -1 -7 6 0 9 -5 9 -21 0 -17 -9 -20 -8 -14 1 6 10 1 12 -19 8 -17 -4 -29 0
-35 9 -4 8 -11 14 -14 14 -18 -2 -23 0 -34 18 -10 17 -9 18 10 14 13 -3 18 -1
12 4 -6 4 -10 19 -10 33 1 14 -3 31 -9 39 -17 22 -16 44 2 57 9 7 19 10 21 8
3 -2 -4 -11 -15 -19z m-80 3 c-5 -8 -2 -9 10 -5 9 4 15 3 11 -2 -3 -5 -2 -11
3 -13 4 -1 -1 -12 -12 -22 -19 -19 -19 -19 -13 3 3 15 0 24 -10 28 -12 5 -12
7 -1 14 18 12 20 11 12 -3z m46 -48 c11 -7 11 -10 2 -10 -7 0 -11 -4 -8 -8 3
-5 -1 -9 -7 -9 -7 0 -14 9 -14 19 -2 20 5 22 27 8z"/>
<path d="M2250 1457 c0 -2 6 -10 14 -16 11 -9 16 -9 22 1 4 7 4 10 -1 6 -4 -4
-14 -3 -22 3 -7 6 -13 9 -13 6z"/>
<path d="M2222 1438 c-7 -7 -12 -17 -12 -22 0 -6 5 -3 11 7 6 9 15 14 21 11 7
-4 8 -2 4 4 -9 15 -9 15 -24 0z"/>
<path d="M4678 1079 c9 -11 18 -19 21 -19 2 0 1 3 -2 7 -4 3 -2 12 3 18 8 9 4
13 -14 13 -22 0 -23 -2 -8 -19z"/>
</g>
</svg>
